 <svg xmlns="http://www.w3.org/2000/svg" height="40" width="40" viewBox="0 0 24 24">
        <path d="M23.954 4.57c-.885.39-1.83.653-2.828.772 1.016-.611 1.798-1.578 2.165-2.73-.951.56-2.005.966-3.125 1.19-.894-.954-2.165-1.547-3.57-1.547-2.707 0-4.902 2.195-4.902 4.902 0 .385.044.76.13 1.12-4.07-.204-7.678-2.15-10.08-5.116-.42.718-.66 1.55-.66 2.432 0 1.68.856 3.168 2.16 4.04-.795-.026-1.544-.243-2.197-.61v.06c0 2.348 1.672 4.31 3.898 4.76-.41.11-.845.168-1.293.168-.315 0-.62-.032-.924-.09.625 1.953 2.43 3.378 4.57 3.42-1.674 1.31-3.777 2.092-6.06 2.092-.393 0-.778-.023-1.16-.07 2.16 1.382 4.73 2.184 7.51 2.184 9.006 0 13.937-7.465 13.937-13.937 0-.21 0-.42-.015-.63.96-.695 1.796-1.56 2.46-2.548-.884.39-1.844.653-2.84.772z" fill="#1DA1F2"/>
    </svg>