<svg xmlns="http://www.w3.org/2000/svg" height="40" width="40" viewBox="0 0 24 24">
        <path d="M4.086 2C2.25 2 1 3.25 1 5.086v13.828C1 20.75 2.25 22 4.086 22h13.828c1.837 0 3.086-1.25 3.086-2.086V5.086C21 3.25 19.75 2 17.914 2H4.086zM8 17H5v-6h3v6zm-1.5-7c-1.105 0-2-.895-2-2s.895-2 2-2 2 .895 2 2-.895 2-2 2zM19 17h-3v-2c0-1.398-.84-2.484-2.25-2.484-.994 0-1.516.564-1.75 1.094-.09.22-.25.578-.25 1.406v2.984h-3s.04-8 0-8h3v1.25c.413-.63 1.17-1.538 2.75-1.538 2.02 0 3.5 1.31 3.5 4.094v5.194z" fill="#0077B5"/>
    </svg>